<svg width="99" height="137" viewBox="0 0 99 137" fill="none" xmlns="http://www.w3.org/2000/svg">
<rect width="99" height="137" fill="white"/>
<path d="M3.00278 3V35.6016C13.4625 21.0993 30.4942 11.6388 49.6953 11.6388C68.8992 11.6388 85.9329 21.1029 96.4018 35.6155V3H3.00139H3.00278ZM49.6953 13.9415C30.2511 13.9415 13.084 23.8862 3.00278 38.9582V75.5517H96.4032V38.9707C86.3205 23.8928 69.1465 13.9415 49.6953 13.9415ZM3 77.8585V133.5H96.4004V77.8585H3Z" fill="#20BBED"/>
<path d="M75.9768 27.4034C75.52 27.4034 75.1168 27.6782 74.9483 28.1041C74.9483 28.1041 70.9047 38.4821 70.441 39.6675C69.1715 39.737 58.1132 40.3193 58.1132 40.3193C57.5279 40.3505 57.0684 40.8396 57.0684 41.4218C57.0684 41.4392 57.0712 41.4607 57.0712 41.4816C57.1025 42.0882 57.6223 42.554 58.2353 42.5244L71.2689 41.8346C71.6979 41.8138 72.0823 41.5372 72.2404 41.134C72.2404 41.134 74.7093 34.787 75.9771 31.5422C77.2362 34.7819 79.6947 41.096 79.6947 41.096C79.8511 41.4992 80.2281 41.7706 80.6554 41.7967C80.6554 41.7967 87.3856 42.1807 90.826 42.3805C88.1723 44.5844 82.9701 48.9145 82.9701 48.9145C82.7113 49.1265 82.5685 49.4368 82.5685 49.7618C82.5685 49.8556 82.5785 49.9457 82.601 50.0361C82.601 50.0361 84.2731 56.5693 85.1329 59.9185C82.236 58.05 76.5905 54.4057 76.5905 54.4057C76.231 54.171 75.7622 54.1698 75.3992 54.3975C75.3992 54.3975 69.6932 58.0369 66.7373 59.9158C67.6387 56.6622 69.2583 50.8047 69.2583 50.8047C69.2792 50.7091 69.2963 50.607 69.2963 50.5114C69.2963 50.0265 68.9764 49.5869 68.4849 49.4496C67.8997 49.2879 67.2879 49.6316 67.1281 50.2208L63.8501 62.0966C63.7285 62.5328 63.8879 63.004 64.2544 63.2752C64.6226 63.5463 65.1198 63.5602 65.5054 63.3186C65.5054 63.3186 74.9182 57.3221 75.988 56.6408C77.0474 57.3273 86.3024 63.2997 86.3024 63.2997C86.6862 63.5465 87.1736 63.534 87.5453 63.2699C87.8353 63.0578 88.0066 62.7257 88.0066 62.3764C88.0066 62.286 87.9912 62.189 87.9686 62.1021C87.9686 62.1021 85.2204 51.3753 84.9131 50.1639C85.87 49.3662 94.3864 42.2884 94.3864 42.2884C94.6417 42.0746 94.7853 41.7599 94.7853 41.4384C94.7853 41.3202 94.7665 41.2092 94.7283 41.0962C94.5893 40.6651 94.1975 40.3646 93.7459 40.3385C93.7459 40.3385 82.7573 39.7072 81.4913 39.6324C81.0276 38.4523 77.0029 28.1043 77.0029 28.1043C76.8397 27.6802 76.4287 27.4037 75.9772 27.4037L75.9768 27.4034ZM22.0442 42.3673C19.7187 42.2613 15.7761 45.2975 12.2019 52.3366C12.0057 52.7224 11.8614 53.0807 11.7433 53.4283C7.98853 54.5511 5.48961 53.5512 5.32288 53.4799C4.94949 53.3235 4.51585 53.4973 4.35955 53.871C4.1963 54.2464 4.36801 54.6751 4.74488 54.835C4.92202 54.915 7.52181 55.9782 11.4068 55.0414C11.405 55.0901 11.3959 55.1448 11.3959 55.1935C11.3959 56.2867 11.857 57.0321 12.4596 57.4231C14.1459 58.5233 17.859 57.5857 23.2463 52.0813C22.8972 53.0755 22.5858 54.1632 22.3861 55.2913C22.3773 55.3399 22.3752 55.39 22.3752 55.4352C22.3752 55.7446 22.5547 56.0239 22.8447 56.1386C23.4265 56.3767 23.7615 55.8928 24.055 55.4705L24.8012 54.3544C25.449 53.3811 26.9029 51.1917 27.8894 50.0446C27.7695 50.6755 27.6478 51.3843 27.6478 52.0569C27.6478 52.9677 27.8694 53.8012 28.6057 54.2323C29.2223 54.5903 30.2092 54.7168 32.3505 53.4393C32.5311 53.9346 32.8938 54.1685 33.1022 54.2676C34.469 54.902 37.0468 53.5312 39.737 50.9571C39.374 51.7722 39.0945 52.4499 39.0233 52.7331C39.0059 52.8113 38.9989 52.888 38.9989 52.9558C38.9989 53.2982 39.2043 53.5432 39.4439 53.651C40.0344 53.9117 40.4115 53.3944 40.7085 52.9721L41.5198 51.7989C42.1919 50.8047 43.7735 48.4745 44.6975 47.5082C44.9701 48.1773 45.4594 49.026 46.3365 49.5178C46.0812 50.0948 45.9539 50.5915 45.9539 51.0087C45.9539 51.5232 46.1463 51.914 46.5319 52.1765C47.2231 52.6457 48.2735 52.387 49.3676 51.7908C45.8733 55.26 44.2675 58.7183 44.2172 60.2529C44.2155 60.2807 44.2144 60.312 44.2144 60.3398C44.2144 61.1949 44.634 61.5392 44.8928 61.6678C45.4243 61.9337 46.0719 61.767 46.8222 61.1708C49.4551 59.08 51.3722 54.1174 52.3499 51.0793C53.6628 50.0087 55.1994 48.9657 56.9658 48.0132C56.3926 49.0196 56.0676 49.9699 56.0676 50.7398C56.0676 51.0178 56.1098 51.2759 56.1897 51.5002C56.3929 52.0389 56.8269 52.3815 57.3809 52.4371C58.5949 52.5709 60.2721 51.2978 62.2519 48.8524C62.0835 49.339 61.9166 49.8131 61.7499 50.2754C56.2515 54.6118 53.7787 59.2451 53.4626 61.7601C53.4348 61.9652 53.4192 62.1566 53.4192 62.3304C53.4192 63.3332 53.8236 63.7956 54.1953 64.006C54.6138 64.2441 55.3234 64.3601 56.3689 63.5606C57.5325 62.6708 60.3061 58.3204 62.9929 51.1527C66.5601 48.41 71.448 45.7875 77.9509 43.9887C78.2774 43.8966 78.4963 43.6012 78.4963 43.2745C78.4963 43.2119 78.4838 43.1442 78.4664 43.0817C78.357 42.6871 77.9506 42.4579 77.5547 42.5657C71.8756 44.1404 67.3778 46.343 63.8645 48.7276C64.2831 47.4831 64.7 46.1679 65.1046 44.7844C65.1237 44.7149 65.1318 44.6475 65.1318 44.578C65.1318 44.2947 64.9678 44.0272 64.7003 43.9072C64.3651 43.756 63.9695 43.8739 63.775 44.1815C60.1105 49.9396 58.0356 50.9876 57.5771 50.9789C57.5511 50.9285 57.5337 50.8578 57.5337 50.7535C57.5337 50.0966 58.0933 48.4574 59.9081 46.5333C60.0367 46.3942 60.1116 46.2124 60.1116 46.0282C60.1116 45.8822 60.0628 45.7341 59.976 45.6072C59.7745 45.3239 59.4027 45.2127 59.0832 45.3465C56.7699 46.3268 54.7759 47.4861 53.0426 48.7167C53.0617 48.6454 53.0754 48.5926 53.0806 48.57C53.0927 48.5074 53.1077 48.4499 53.1077 48.3908C53.1077 48.1214 52.9527 47.8659 52.7061 47.739C52.6905 47.7337 52.682 47.7333 52.6681 47.7282C53.1753 47.3284 53.696 46.8914 54.2448 46.3839C54.8231 45.8451 54.9721 45.355 54.9721 44.9935C54.9721 44.8336 54.9416 44.704 54.9069 44.5997C54.7385 44.0783 54.2562 43.7373 53.5963 43.6573C51.969 43.4679 49.3906 44.8455 47.0808 48.2469C46.2941 47.8245 45.9858 46.7979 45.8434 46.3268L45.7864 46.1367C45.6909 45.8274 45.4083 45.6353 45.0836 45.637C44.5851 45.6422 44.05 45.986 43.2111 46.9732C43.2234 46.9506 43.2325 46.9244 43.2464 46.9053C43.295 46.8027 43.317 46.6953 43.317 46.5875C43.317 46.3355 43.1872 46.0921 42.9615 45.9548C42.635 45.7584 42.2167 45.8425 41.9927 46.1449C37.8871 51.6771 34.2924 53.214 33.7297 52.9341C33.7262 52.9167 33.7134 52.8776 33.7134 52.782C33.7134 52.7194 33.7241 52.6291 33.7433 52.5213C34.6603 51.8643 35.7451 51.0056 37.0268 49.8898C38.2164 48.8574 38.4894 48.021 38.4894 47.4701C38.4894 47.2181 38.4302 47.0287 38.3781 46.9053C38.135 46.3352 37.5481 46.0198 36.8395 46.0824C35.3165 46.2128 33.413 47.997 32.4544 51.6279C30.0751 53.253 29.4342 53.0063 29.3473 52.9559C29.0243 52.7699 29.0497 51.7511 29.4179 49.9279C29.5794 49.1197 29.6528 48.7497 29.4721 48.4126C29.295 48.0824 28.9877 47.8869 28.6282 47.8695C27.8536 47.833 26.9776 48.6421 25.1576 51.2179C25.8783 49.5024 26.582 48.3241 26.5958 48.3066C26.6688 48.1867 26.7044 48.0541 26.7044 47.9237C26.7044 47.6926 26.5946 47.4651 26.3896 47.3208C26.077 47.0966 25.6448 47.1559 25.3964 47.4566C18.9236 55.3647 14.5195 57.0089 13.2639 56.1902C12.9947 56.013 12.865 55.6714 12.865 55.2126C12.865 55.0231 12.8958 54.8102 12.941 54.5826C15.3636 53.7187 18.1671 52.0604 21.1334 49.0154C22.8857 47.2252 23.8253 45.5458 23.8253 44.2683C23.8253 43.9815 23.7797 43.7142 23.6842 43.4726C23.4237 42.8104 22.825 42.4073 22.0452 42.3673L22.0442 42.3673ZM21.9764 43.8392C22.2508 43.8531 22.2903 43.9609 22.3128 44.013C22.3354 44.0791 22.3536 44.1675 22.3536 44.2683C22.3536 44.9114 21.7937 46.2351 20.0796 47.9888C17.7854 50.3421 15.6146 51.8033 13.6782 52.6897C17.0838 46.1338 20.561 43.7733 21.9765 43.8393L21.9764 43.8392ZM53.3997 45.1237C53.3615 45.1741 53.3195 45.2317 53.2396 45.303C51.5481 46.8725 50.0581 47.87 48.8788 48.2577C50.725 45.8608 52.3245 45.2944 52.8299 45.1726C53.0991 45.11 53.2817 45.108 53.3998 45.1237L53.3997 45.1237ZM37.0038 47.5516C36.9656 47.7254 36.7784 48.1499 36.0594 48.7791C35.5228 49.2431 35.0284 49.6598 34.575 50.0283C35.3236 48.4554 36.1766 47.8698 36.4908 47.7064C36.7322 47.576 36.903 47.5516 37.0037 47.5516L37.0038 47.5516ZM50.6071 49.1104C49.1813 50.3722 47.8852 50.9554 47.4267 50.957C47.432 50.818 47.4929 50.4968 47.7795 49.9006C48.62 49.9319 49.5581 49.6735 50.6071 49.1104L50.6071 49.1104ZM60.6122 53.1731C58.3562 58.5905 56.2445 61.7942 55.4699 62.3956C55.2163 62.585 55.04 62.6692 54.9462 62.697C54.9184 62.631 54.8946 62.5197 54.8946 62.325C54.8946 61.9861 54.9703 61.4443 55.2447 60.6656C55.9203 58.7346 57.6129 55.987 60.6122 53.173L60.6122 53.1731ZM50.0373 53.1894C49.0352 55.7687 47.6151 58.6611 45.9045 60.0167C45.8211 60.0845 45.7509 60.1352 45.6901 60.177C45.7665 59.1115 47.0693 56.2502 50.0373 53.1895V53.1894ZM44.952 82.2148C42.4772 82.2148 41.2778 83.705 41.2778 86.0357V89.873C41.2778 93.1111 42.4772 94.3919 44.952 94.3919C46.4578 94.3919 47.5751 94.0381 48.5285 93.5202V87.8336H44.8868V89.129H47.0414V92.6268C46.7323 92.8527 46.02 93.1455 44.952 93.1455C43.5452 93.1455 42.8001 92.4966 42.8001 89.9383V85.9897C42.8001 83.5426 44.483 83.4614 44.952 83.4614C46.4578 83.4614 47.0252 84.2068 47.0252 85.585H48.5774C48.6764 83.1395 47.4772 82.2148 44.952 82.2148V82.2148ZM64.4281 82.2148C62.4675 82.2148 60.9954 83.3177 60.9954 85.3894C60.9954 88.9056 66.2381 88.6095 66.2381 91.201C66.2381 92.5931 65.3323 93.0966 64.1512 93.0966C63.1978 93.0966 62.192 92.5941 62.192 91.0055V90.6661H60.7212C60.6882 91.7836 60.6865 94.4243 64.1322 94.3947C66.06 94.3947 67.7603 93.5969 67.7603 91.1358C67.7603 87.4302 62.5176 87.8004 62.5176 85.2264C62.5176 83.9628 63.4231 83.51 64.3141 83.51C65.7208 83.51 66.1235 84.3528 66.1078 85.6337H67.66C67.7607 83.2525 66.5625 82.2146 64.428 82.2146L64.4281 82.2148ZM7.0291 82.4565V94.1475H13.1429V92.8522H8.51614V88.8057H12.7222V87.5103H8.51614V83.7545H13.0452V82.4564H7.0291V82.4565ZM15.0071 82.4565V94.1475H16.3341V84.0125H16.3667L20.9772 94.1475H23.0179V82.4565H21.6909V92.4665H21.6583L17.1104 82.4565H15.0073H15.0071ZM25.0801 82.4565V94.1475H31.1965V92.8522H26.5698V88.8057H30.7786V87.5103H26.5698V83.7545H31.1015V82.4564H25.0799L25.0801 82.4565ZM32.9903 82.4565V94.1475H34.4774V88.7732H36.2249C36.7285 88.7732 37.8731 88.839 37.9861 90.2642C38.1163 91.818 38.0199 93.3412 38.4419 94.1477H39.9942C39.7666 93.4229 39.6055 91.5904 39.5898 91.0898C39.5099 88.74 39.0264 88.2874 37.6822 88.0754V88.0428C39.056 87.8012 39.8152 86.7498 39.8152 85.3733C39.8152 83.9151 39.0893 82.4566 37.0174 82.4566H32.9905L32.9903 82.4565ZM49.3501 82.4565L52.4898 89.6938V94.1475H53.9769V89.6938L57.1627 82.4565H55.6594L53.2986 88.1079L51.0164 82.4565H49.3503H49.3501ZM68.429 82.4565V83.7546H71.5035V94.1475H72.9906V83.7546H76.0651V82.4565H68.429ZM85.3751 82.4565V94.1475H86.8649V88.7732H88.6125C89.1144 88.7732 90.2617 88.839 90.3763 90.2642C90.5048 91.818 90.4074 93.3412 90.8295 94.1477H92.3817C92.1559 93.4229 91.9957 91.5904 91.9801 91.0898C91.8984 88.74 91.4122 88.2874 90.0697 88.0754V88.0428C91.4417 87.8012 92.2026 86.7498 92.2026 85.3733C92.2026 83.9151 91.4751 82.4566 89.4049 82.4566H85.3751L85.3751 82.4565ZM78.5341 82.4592L74.8301 94.1475H76.3334L77.2072 91.3612H81.7226L82.5611 94.1475H84.23L80.4283 82.4592H78.5342H78.5341ZM34.4758 83.7546H36.7254C37.8716 83.7546 38.2938 84.6922 38.2938 85.5334C38.2938 86.5554 37.7762 87.4778 36.7063 87.4778H34.4757V83.7546H34.4758ZM86.8648 83.7546H89.1143C90.2623 83.7546 90.6828 84.6922 90.6828 85.5334C90.6828 86.5554 90.1644 87.4778 89.0981 87.4778H86.8648V83.7546V83.7546ZM79.4051 83.8361H79.4404L81.3155 90.0686H77.5788L79.4051 83.8361H79.4051Z" fill="white"/>
<path d="M7 116.903H8.48276V121.342H10.4103V116.903H11.8931V127.704H10.4103V122.673H8.48276V127.852H7V116.903Z" fill="white"/>
<path d="M15.8966 116.903V127.704H14.4138V116.903H15.8966V116.903Z" fill="white"/>
<path d="M23.0138 127.852H21.8276C21.8276 127.704 21.8276 127.26 21.6793 126.964C21.3828 127.704 20.7897 128 20.0483 128C18.4172 128 17.9724 126.816 17.9724 125.041V119.862C17.9724 118.087 18.7138 116.903 20.4931 116.903C22.569 116.903 22.8655 118.383 22.8655 119.714V120.01H21.3828V119.566C21.3828 118.975 21.2345 118.087 20.4931 118.087C19.7517 118.087 19.4552 118.531 19.4552 119.566V125.189C19.4552 126.077 19.7517 126.668 20.3448 126.668C21.2345 126.668 21.3828 125.929 21.3828 124.745V123.117H20.4931V121.786H23.0138V127.852V127.852Z" fill="white"/>
<path d="M25.238 116.903H26.7208V121.342H28.6484V116.903H30.1311V127.704H28.6484V122.673H26.7208V127.852H25.238V116.903Z" fill="white"/>
<path d="M39.6207 122.673H37.2483V126.372H40.0655L39.9173 127.704H35.9138V116.903H39.9173V118.235H37.3966V121.342H39.6207V122.673Z" fill="white"/>
<path d="M41.6965 116.903H45.7V118.235H43.1793V121.342H45.7V122.673H43.1793V127.704H41.6965V116.903Z" fill="white"/>
<path d="M47.7759 116.903H51.7793V118.235H49.2586V121.342H51.7793V122.673H49.2586V127.704H47.7759V116.903Z" fill="white"/>
<path d="M55.1895 116.903V127.704H53.7068V116.903H55.1895V116.903Z" fill="white"/>
<path d="M62.1586 124.597V125.041C62.1586 126.372 61.8621 128 59.7862 128C57.8586 128 57.4138 126.668 57.4138 125.041V119.566C57.4138 117.791 58.1552 116.755 59.7862 116.755C61.7138 116.755 62.1586 118.087 62.1586 119.566V120.01H60.6759V119.418C60.6759 118.679 60.5276 118.087 59.7862 118.087C59.0448 118.087 58.8966 118.531 58.8966 119.418V125.189C58.8966 126.077 59.0448 126.668 59.7862 126.668C60.5276 126.668 60.6759 126.077 60.6759 125.189V124.597H62.1586V124.597Z" fill="white"/>
<path d="M65.5689 116.903V127.704H64.0862V116.903H65.5689V116.903Z" fill="white"/>
<path d="M71.7965 122.673H69.4241V126.372H72.2413L72.093 127.704H68.0896V116.903H72.093V118.235H69.5724V121.342H71.9448V122.673H71.7965Z" fill="white"/>
<path d="M74.0208 127.852V117.051H75.8001C76.2449 118.827 77.7277 124.301 77.8759 125.041C77.8759 123.709 77.7277 122.082 77.7277 120.306V117.051H79.0621V127.852H77.4311C76.9863 126.224 75.5035 120.306 75.3552 119.566C75.5035 120.898 75.5035 122.526 75.5035 124.449V127.852H74.0208V127.852Z" fill="white"/>
<path d="M85.8828 124.597V125.041C85.8828 126.372 85.5862 128 83.5104 128C81.5828 128 81.1379 126.668 81.1379 125.041V119.566C81.1379 117.791 81.8793 116.755 83.5104 116.755C85.4379 116.755 85.8828 118.087 85.8828 119.566V120.01H84.4V119.418C84.4 118.679 84.2517 118.087 83.5104 118.087C82.769 118.087 82.6207 118.531 82.6207 119.418V125.189C82.6207 126.077 82.769 126.668 83.5104 126.668C84.2517 126.668 84.4 126.077 84.4 125.189V124.597H85.8828V124.597Z" fill="white"/>
<path d="M89.4413 127.852V123.857C89.4413 123.709 89.4413 123.709 89.4413 123.561L87.3655 116.903H88.9965C89.4413 118.827 90.0344 120.898 90.1827 122.082C90.331 120.898 90.9241 118.827 91.3689 116.903H92.8517L90.7758 123.561C90.7758 123.709 90.7758 123.709 90.7758 124.005V127.852H89.4413V127.852Z" fill="white"/>
<path d="M7 100.811H8.48276V105.25H10.4103V100.811H11.8931V111.612H10.4103V106.434H8.48276V111.612H7V100.811Z" fill="white"/>
<path d="M15.1551 108.505L14.7103 111.612H13.2275L15.0068 100.811H17.0827L18.862 111.612H17.3793L16.9344 108.505H15.1551ZM16.7862 107.173C16.4896 105.102 16.1931 103.327 16.0448 102.143C15.8965 103.031 15.6 105.398 15.3034 107.173H16.7862Z" fill="white"/>
<path d="M21.531 100.811V109.097C21.531 109.985 21.8276 110.429 22.5689 110.429C23.3103 110.429 23.6069 109.837 23.6069 109.097V100.811H25.0896V109.097C25.0896 110.724 24.3483 111.76 22.5689 111.76C20.9379 111.76 20.1965 110.872 20.1965 109.097V100.811H21.531Z" fill="white"/>
<path d="M27.907 102.143H26.1277V100.811H31.1691V102.143H29.3898V111.612H27.907V102.143V102.143Z" fill="white"/>
<path d="M36.2103 106.582H33.8379V110.281H36.6551L36.5069 111.612H32.5034V100.811H36.5069V102.143H33.9862V105.25H36.3586V106.582H36.2103Z" fill="white"/>
<path d="M44.3656 106.582H41.9932V110.281H44.8104L44.6621 111.612H40.6587V100.811H44.6621V102.143H42.1414V105.25H44.5139V106.582H44.3656Z" fill="white"/>
<path d="M45.9966 100.811H50V102.143H47.4793V105.25H50V106.582H47.4793V111.612H45.9966V100.811Z" fill="white"/>
<path d="M51.3345 100.811H55.3379V102.143H52.8172V105.25H55.3379V106.582H52.8172V111.612H51.3345V100.811V100.811Z" fill="white"/>
<path d="M58.3036 100.811V111.612H56.8208V100.811H58.3036Z" fill="white"/>
<path d="M64.8276 108.505V108.949C64.8276 110.281 64.531 111.908 62.4552 111.908C60.5276 111.908 60.0828 110.577 60.0828 108.949V103.327C60.0828 101.551 60.8241 100.515 62.4552 100.515C64.3828 100.515 64.8276 101.847 64.8276 103.327V103.918H63.3448V103.327C63.3448 102.587 63.1966 101.995 62.4552 101.995C61.7138 101.995 61.5655 102.439 61.5655 103.327V109.097C61.5655 109.985 61.7138 110.577 62.4552 110.577C63.1966 110.577 63.3448 109.985 63.3448 109.097V108.505H64.8276Z" fill="white"/>
<path d="M67.6449 108.505L67.2 111.612H65.7173L67.4966 100.811H69.5725L71.3518 111.612H69.869L69.4242 108.505H67.6449ZM69.2759 107.173C68.9794 105.102 68.6828 103.327 68.5345 102.143C68.5345 103.031 68.0897 105.398 67.9414 107.173H69.2759Z" fill="white"/>
<path d="M77.4311 108.505V108.949C77.4311 110.281 77.1345 111.908 75.0587 111.908C73.1311 111.908 72.6863 110.577 72.6863 108.949V103.327C72.6863 101.551 73.4277 100.515 75.0587 100.515C76.9863 100.515 77.4311 101.847 77.4311 103.327V103.918H75.9483V103.327C75.9483 102.587 75.8001 101.995 75.0587 101.995C74.3173 101.995 74.169 102.439 74.169 103.327V109.097C74.169 109.985 74.3173 110.577 75.0587 110.577C75.8001 110.577 75.9483 109.985 75.9483 109.097V108.505H77.4311Z" fill="white"/>
<path d="M80.2484 100.811V111.612H78.7656V100.811H80.2484Z" fill="white"/>
<path d="M83.2139 102.143H81.4346V100.811H86.4759V102.143H84.6966V111.612H83.2139V102.143V102.143Z" fill="white"/>
<path d="M91.5172 106.582H89.1448V110.281H91.962L91.8137 111.612H87.8103V100.811H91.8137V102.143H89.2931V105.25H91.5172V106.582Z" fill="white"/>
<path d="M91 98.5H89.6655L89 100.128H89.8897L91 98.5Z" fill="white"/>
</svg>
